<svg width="24" height="24" viewBox="0 0 24 24" fill="none" xmlns="http://www.w3.org/2000/svg">
<path d="M15.1 4V3.9H15H6H5.9V4V20V20.1H6H15H15.1V20V19C15.1 18.7613 15.1948 18.5324 15.3636 18.3636C15.5324 18.1948 15.7613 18.1 16 18.1C16.2387 18.1 16.4676 18.1948 16.6364 18.3636C16.8052 18.5324 16.9 18.7613 16.9 19V20C16.9 20.5039 16.6998 20.9872 16.3435 21.3435C15.9872 21.6998 15.5039 21.9 15 21.9H6C5.49609 21.9 5.01282 21.6998 4.6565 21.3435C4.30018 20.9872 4.1 20.5039 4.1 20V4C4.1 3.49609 4.30018 3.01282 4.6565 2.6565C5.01282 2.30018 5.49609 2.1 6 2.1H15C15.5039 2.1 15.9872 2.30018 16.3435 2.6565C16.6998 3.01282 16.9 3.49609 16.9 4V5C16.9 5.23869 16.8052 5.46761 16.6364 5.6364C16.4676 5.80518 16.2387 5.9 16 5.9C15.7613 5.9 15.5324 5.80518 15.3636 5.6364C15.1948 5.46761 15.1 5.23869 15.1 5V4Z" fill="black" stroke="white" stroke-width="0.2"/>
<path d="M18.67 11.0982H18.9107L18.7409 10.9276L16.8666 9.04537C16.713 8.87453 16.6306 8.65135 16.6364 8.42163C16.6422 8.19112 16.7364 7.97167 16.8995 7.80862C17.0625 7.64558 17.282 7.55142 17.5125 7.5456C17.7421 7.5398 17.9653 7.62216 18.1361 7.77571L21.7223 11.3619C21.7223 11.3619 21.7223 11.3619 21.7223 11.3619C21.891 11.5307 21.9858 11.7595 21.9858 11.9982C21.9858 12.2368 21.891 12.4657 21.7223 12.6345C21.7223 12.6345 21.7223 12.6345 21.7223 12.6345L18.1343 16.2225C17.7833 16.5734 17.2167 16.5734 16.8657 16.2225C16.6978 16.0539 16.6034 15.8257 16.6032 15.5878C16.603 15.3498 16.6971 15.1215 16.8649 14.9527L18.7409 13.0687L18.9107 12.8982H18.67H10C9.76131 12.8982 9.53239 12.8034 9.3636 12.6346C9.19482 12.4658 9.1 12.2369 9.1 11.9982C9.1 11.7595 9.19482 11.5306 9.3636 11.3618C9.53239 11.193 9.76131 11.0982 10 11.0982H18.67Z" fill="black" stroke="white" stroke-width="0.2"/>
</svg>
