<svg width="25" height="25" viewBox="0 0 25 25" fill="none" xmlns="http://www.w3.org/2000/svg">
<path d="M5.20898 20.8346V19.793C5.20898 17.8591 5.97721 16.0044 7.34466 14.637C8.71212 13.2695 10.5668 12.5013 12.5007 12.5013M12.5007 12.5013C14.4345 12.5013 16.2892 13.2695 17.6566 14.637C19.0241 16.0044 19.7923 17.8591 19.7923 19.793V20.8346M12.5007 12.5013C13.6057 12.5013 14.6655 12.0623 15.4469 11.2809C16.2283 10.4995 16.6673 9.4397 16.6673 8.33464C16.6673 7.22957 16.2283 6.16976 15.4469 5.38836C14.6655 4.60696 13.6057 4.16797 12.5007 4.16797C11.3956 4.16797 10.3358 4.60696 9.55437 5.38836C8.77297 6.16976 8.33398 7.22957 8.33398 8.33464C8.33398 9.4397 8.77297 10.4995 9.55437 11.2809C10.3358 12.0623 11.3956 12.5013 12.5007 12.5013Z" stroke="#171717" stroke-width="1.5" stroke-linecap="round" stroke-linejoin="round"/>
</svg>
