<svg width="32" height="30" viewBox="0 0 32 30" fill="none" xmlns="http://www.w3.org/2000/svg">
<g clip-path="url(#clip0_720_2958)">
<path fill-rule="evenodd" clip-rule="evenodd" d="M28.8005 14.5C28.8005 21.4037 22.8311 27 15.4671 27C8.10312 27 2.13379 21.4037 2.13379 14.5C2.13379 7.59625 8.10312 2 15.4671 2C22.8311 2 28.8005 7.59625 28.8005 14.5ZM21.8858 11.4763C21.9875 11.3426 22.0602 11.1915 22.0996 11.0316C22.1391 10.8716 22.1445 10.706 22.1157 10.5441C22.0868 10.3821 22.0242 10.2271 21.9315 10.0879C21.8387 9.94863 21.7177 9.82787 21.5751 9.7325C21.4326 9.63713 21.2714 9.56901 21.1008 9.53203C20.9302 9.49505 20.7535 9.48994 20.5808 9.51698C20.4081 9.54403 20.2427 9.6027 20.0942 9.68965C19.9457 9.7766 19.8169 9.89013 19.7151 10.0237L13.9631 17.5737L11.0765 14.8663C10.825 14.6386 10.4882 14.5126 10.1386 14.5154C9.78899 14.5183 9.45458 14.6497 9.20736 14.8815C8.96015 15.1132 8.81993 15.4268 8.81689 15.7545C8.81385 16.0822 8.94825 16.398 9.19112 16.6337L13.1911 20.3838C13.3281 20.5119 13.4931 20.6106 13.6748 20.673C13.8565 20.7354 14.0505 20.7599 14.2434 20.7449C14.4362 20.7299 14.6232 20.6758 14.7915 20.5862C14.9598 20.4966 15.1052 20.3738 15.2178 20.2262L21.8858 11.4763Z" fill="black"/>
</g>
<defs>
<clipPath id="clip0_720_2958">
<rect width="32" height="30" fill="white"/>
</clipPath>
</defs>
</svg>
