<svg width="30" height="30" viewBox="0 0 30 30" fill="none" xmlns="http://www.w3.org/2000/svg">
<path d="M18.75 12.5L13.75 17.5L11.25 15M15 26.25C13.5226 26.25 12.0597 25.959 10.6948 25.3936C9.3299 24.8283 8.08971 23.9996 7.04505 22.955C6.00039 21.9103 5.17172 20.6701 4.60636 19.3052C4.04099 17.9403 3.75 16.4774 3.75 15C3.75 13.5226 4.04099 12.0597 4.60636 10.6948C5.17172 9.3299 6.00039 8.08971 7.04505 7.04505C8.08971 6.00039 9.3299 5.17172 10.6948 4.60636C12.0597 4.04099 13.5226 3.75 15 3.75C17.9837 3.75 20.8452 4.93526 22.955 7.04505C25.0647 9.15483 26.25 12.0163 26.25 15C26.25 17.9837 25.0647 20.8452 22.955 22.955C20.8452 25.0647 17.9837 26.25 15 26.25Z" stroke="#C2C6CC" stroke-width="2" stroke-linecap="round" stroke-linejoin="round"/>
</svg>
