<svg width="20" height="20" viewBox="0 0 20 20" fill="none" xmlns="http://www.w3.org/2000/svg">
<path d="M18.7506 10.1951C18.7506 9.47569 18.6911 8.95069 18.5621 8.40625H10.1792V11.6534H15.0998C15.0006 12.4604 14.4649 13.6757 13.2744 14.4923L13.2577 14.6011L15.9083 16.6133L16.0919 16.6313C17.7784 15.1049 18.7506 12.859 18.7506 10.1951Z" fill="#4285F4"/>
<path d="M10.1788 18.75C12.5895 18.75 14.6133 17.9722 16.0915 16.6305L13.274 14.4915C12.5201 15.0068 11.5081 15.3665 10.1788 15.3665C7.81776 15.3665 5.81379 13.8402 5.09944 11.7305L4.99473 11.7392L2.23868 13.8295L2.20264 13.9277C3.67087 16.786 6.68676 18.75 10.1788 18.75Z" fill="#34A853"/>
<path d="M5.09965 11.7303C4.91116 11.1858 4.80208 10.6024 4.80208 9.9997C4.80208 9.39688 4.91116 8.81357 5.08973 8.26913L5.08474 8.15313L2.29414 6.0293L2.20284 6.07186C1.59771 7.25801 1.25049 8.58995 1.25049 9.9997C1.25049 11.4094 1.59771 12.7413 2.20284 13.9274L5.09965 11.7303Z" fill="#FBBC05"/>
<path d="M10.1789 4.63331C11.8554 4.63331 12.9864 5.34303 13.6313 5.93612L16.1511 3.525C14.6035 2.11528 12.5896 1.25 10.1789 1.25C6.68676 1.25 3.67088 3.21388 2.20264 6.07218L5.08954 8.26944C5.81381 6.15972 7.81776 4.63331 10.1789 4.63331Z" fill="#EB4335"/>
</svg>
