<svg width="20" height="19" viewBox="0 0 20 19" fill="none" xmlns="http://www.w3.org/2000/svg">
<path d="M9.98047 0.875C11.6932 0.875 13.2772 1.20833 14.7327 1.87498C16.1881 2.54164 17.3387 3.44816 18.1845 4.59453C19.0302 5.74086 19.4531 6.99129 19.4531 8.34578C19.4531 9.70024 19.0302 10.9524 18.1845 12.1023C17.3387 13.2522 16.1898 14.1605 14.7379 14.8271C13.286 15.4938 11.7002 15.8271 9.98047 15.8271C9.43777 15.8271 8.87742 15.7883 8.29949 15.7107C5.79035 17.4532 4.45477 18.335 4.29266 18.3562C4.21512 18.3844 4.14109 18.3809 4.07063 18.3456C4.04242 18.3245 4.02129 18.2962 4.00719 18.2609C3.99309 18.2257 3.98605 18.1939 3.98605 18.1657V18.1234C4.02836 17.8482 4.34902 16.7019 4.94812 14.6843C3.58784 14.0071 2.50771 13.1094 1.70775 11.9912C0.907793 10.8731 0.507812 9.65793 0.507812 8.34578C0.507812 6.99129 0.930699 5.74086 1.77647 4.59453C2.62225 3.44816 3.77285 2.54164 5.22828 1.87498C6.68371 1.20833 8.26777 0.875 9.98047 0.875Z" fill="#351D1D"/>
</svg>
