<svg width="24" height="24" viewBox="0 0 24 24" fill="none" xmlns="http://www.w3.org/2000/svg">
<path d="M3.25 21.875V20.625C3.25 18.3044 4.17187 16.0788 5.81282 14.4378C7.45376 12.7969 9.67935 11.875 12 11.875C14.3206 11.875 16.5462 12.7969 18.1872 14.4378C19.8281 16.0788 20.75 18.3044 20.75 20.625V21.875M12 11.875C13.3261 11.875 14.5979 11.3482 15.5355 10.4105C16.4732 9.47285 17 8.20108 17 6.875C17 5.54892 16.4732 4.27715 15.5355 3.33947C14.5979 2.40178 13.3261 1.875 12 1.875C10.6739 1.875 9.40215 2.40178 8.46446 3.33947C7.52678 4.27715 7 5.54892 7 6.875C7 8.20108 7.52678 9.47285 8.46446 10.4105C9.40215 11.3482 10.6739 11.875 12 11.875Z" fill="#171717"/>
<path d="M3.25 21.875V20.625C3.25 18.3044 4.17187 16.0788 5.81282 14.4378C7.45376 12.7969 9.67935 11.875 12 11.875M12 11.875C14.3206 11.875 16.5462 12.7969 18.1872 14.4378C19.8281 16.0788 20.75 18.3044 20.75 20.625V21.875M12 11.875C13.3261 11.875 14.5979 11.3482 15.5355 10.4105C16.4732 9.47285 17 8.20108 17 6.875C17 5.54892 16.4732 4.27715 15.5355 3.33947C14.5979 2.40178 13.3261 1.875 12 1.875C10.6739 1.875 9.40215 2.40178 8.46446 3.33947C7.52678 4.27715 7 5.54892 7 6.875C7 8.20108 7.52678 9.47285 8.46446 10.4105C9.40215 11.3482 10.6739 11.875 12 11.875Z" stroke="#171717" stroke-width="1.5" stroke-linecap="round" stroke-linejoin="round"/>
<path d="M3.25 22.125L20.75 22.125" stroke="#171717" stroke-width="1.5" stroke-linecap="round"/>
</svg>
