<svg width="24" height="24" viewBox="0 0 24 24" fill="none" xmlns="http://www.w3.org/2000/svg">
<path d="M16.5292 11.0003V6.00012C16.5292 4.93922 16.0521 3.92178 15.2028 3.17161C14.3535 2.42144 13.2016 2 12.0005 2C10.7993 2 9.64744 2.42144 8.79813 3.17161C7.94882 3.92178 7.47168 4.93922 7.47168 6.00012V11.0003" stroke="#171717" stroke-width="1.5" stroke-linecap="round" stroke-linejoin="round"/>
<path d="M2.91641 9.84005C2.96195 9.33885 3.21956 8.87117 3.63793 8.53018C4.0563 8.18919 4.60473 7.9999 5.174 8H18.826C19.3953 7.9999 19.9437 8.18919 20.3621 8.53018C20.7804 8.87117 21.038 9.33885 21.0836 9.84005L21.9927 19.8404C22.0177 20.1156 21.978 20.3923 21.8759 20.6533C21.7739 20.9143 21.6118 21.1537 21.3998 21.3566C21.1879 21.5596 20.9306 21.7215 20.6443 21.8323C20.358 21.9431 20.0489 22.0003 19.7363 22.0004H4.26372C3.95115 22.0003 3.64198 21.9431 3.35568 21.8323C3.06938 21.7215 2.81215 21.5596 2.60018 21.3566C2.38822 21.1537 2.22611 20.9143 2.12407 20.6533C2.02202 20.3923 1.98225 20.1156 2.00726 19.8404L2.91641 9.84005Z" stroke="#171717" stroke-width="1.5" stroke-linecap="round" stroke-linejoin="round"/>
</svg>
