<svg width="30" height="30" viewBox="0 0 30 30" fill="none" xmlns="http://www.w3.org/2000/svg">
<path d="M20.0005 22.5C20.6635 22.5 21.2994 22.7634 21.7683 23.2322C22.2371 23.7011 22.5005 24.337 22.5005 25C22.5005 25.663 22.2371 26.2989 21.7683 26.7678C21.2994 27.2366 20.6635 27.5 20.0005 27.5C19.3374 27.5 18.7016 27.2366 18.2327 26.7678C17.7639 26.2989 17.5005 25.663 17.5005 25C17.5005 24.337 17.7639 23.7011 18.2327 23.2322C18.7016 22.7634 19.3374 22.5 20.0005 22.5ZM20.0005 23.75C19.669 23.75 19.351 23.8817 19.1166 24.1161C18.8822 24.3505 18.7505 24.6685 18.7505 25C18.7505 25.3315 18.8822 25.6495 19.1166 25.8839C19.351 26.1183 19.669 26.25 20.0005 26.25C20.332 26.25 20.65 26.1183 20.8844 25.8839C21.1188 25.6495 21.2505 25.3315 21.2505 25C21.2505 24.6685 21.1188 24.3505 20.8844 24.1161C20.65 23.8817 20.332 23.75 20.0005 23.75ZM8.75049 22.5C9.41353 22.5 10.0494 22.7634 10.5183 23.2322C10.9871 23.7011 11.2505 24.337 11.2505 25C11.2505 25.663 10.9871 26.2989 10.5183 26.7678C10.0494 27.2366 9.41353 27.5 8.75049 27.5C8.08745 27.5 7.45156 27.2366 6.98272 26.7678C6.51388 26.2989 6.25049 25.663 6.25049 25C6.25049 24.337 6.51388 23.7011 6.98272 23.2322C7.45156 22.7634 8.08745 22.5 8.75049 22.5ZM8.75049 23.75C8.41897 23.75 8.10103 23.8817 7.8666 24.1161C7.63218 24.3505 7.50049 24.6685 7.50049 25C7.50049 25.3315 7.63218 25.6495 7.8666 25.8839C8.10103 26.1183 8.41897 26.25 8.75049 26.25C9.08201 26.25 9.39995 26.1183 9.63437 25.8839C9.86879 25.6495 10.0005 25.3315 10.0005 25C10.0005 24.6685 9.86879 24.3505 9.63437 24.1161C9.39995 23.8817 9.08201 23.75 8.75049 23.75ZM22.5005 7.5H5.33799L8.52549 15H18.7505C19.163 15 19.5255 14.8 19.7505 14.5L23.5005 9.5C23.663 9.2875 23.7505 9.025 23.7505 8.75C23.7505 8.41848 23.6188 8.10054 23.3844 7.86612C23.15 7.6317 22.832 7.5 22.5005 7.5ZM18.7505 16.25H8.58799L7.62549 18.2L7.50049 18.75C7.50049 19.0815 7.63218 19.3995 7.8666 19.6339C8.10103 19.8683 8.41897 20 8.75049 20H22.5005V21.25H8.75049C8.08745 21.25 7.45156 20.9866 6.98272 20.5178C6.51388 20.0489 6.25049 19.413 6.25049 18.75C6.25012 18.3259 6.35766 17.9086 6.56299 17.5375L7.46299 15.7L2.92549 5H1.25049V3.75H3.75049L4.81299 6.25H22.5005C23.1635 6.25 23.7994 6.51339 24.2683 6.98223C24.7371 7.45107 25.0005 8.08696 25.0005 8.75C25.0005 9.375 24.788 9.9 24.438 10.325L20.8005 15.1875C20.3505 15.825 19.6005 16.25 18.7505 16.25Z" fill="black"/>
</svg>
