<svg width="20" height="20" viewBox="0 0 20 20" fill="none" xmlns="http://www.w3.org/2000/svg">
<path d="M13.3335 15C13.7755 15 14.1994 15.1756 14.512 15.4882C14.8246 15.8007 15.0002 16.2246 15.0002 16.6667C15.0002 17.1087 14.8246 17.5326 14.512 17.8452C14.1994 18.1577 13.7755 18.3333 13.3335 18.3333C12.8915 18.3333 12.4675 18.1577 12.155 17.8452C11.8424 17.5326 11.6668 17.1087 11.6668 16.6667C11.6668 16.2246 11.8424 15.8007 12.155 15.4882C12.4675 15.1756 12.8915 15 13.3335 15ZM13.3335 15.8333C13.1125 15.8333 12.9005 15.9211 12.7442 16.0774C12.588 16.2337 12.5002 16.4457 12.5002 16.6667C12.5002 16.8877 12.588 17.0996 12.7442 17.2559C12.9005 17.4122 13.1125 17.5 13.3335 17.5C13.5545 17.5 13.7665 17.4122 13.9228 17.2559C14.079 17.0996 14.1668 16.8877 14.1668 16.6667C14.1668 16.4457 14.079 16.2337 13.9228 16.0774C13.7665 15.9211 13.5545 15.8333 13.3335 15.8333ZM5.8335 15C6.27552 15 6.69945 15.1756 7.01201 15.4882C7.32457 15.8007 7.50016 16.2246 7.50016 16.6667C7.50016 17.1087 7.32457 17.5326 7.01201 17.8452C6.69945 18.1577 6.27552 18.3333 5.8335 18.3333C5.39147 18.3333 4.96755 18.1577 4.65498 17.8452C4.34242 17.5326 4.16683 17.1087 4.16683 16.6667C4.16683 16.2246 4.34242 15.8007 4.65498 15.4882C4.96755 15.1756 5.39147 15 5.8335 15ZM5.8335 15.8333C5.61248 15.8333 5.40052 15.9211 5.24424 16.0774C5.08796 16.2337 5.00016 16.4457 5.00016 16.6667C5.00016 16.8877 5.08796 17.0996 5.24424 17.2559C5.40052 17.4122 5.61248 17.5 5.8335 17.5C6.05451 17.5 6.26647 17.4122 6.42275 17.2559C6.57903 17.0996 6.66683 16.8877 6.66683 16.6667C6.66683 16.4457 6.57903 16.2337 6.42275 16.0774C6.26647 15.9211 6.05451 15.8333 5.8335 15.8333ZM15.0002 5H3.5585L5.6835 10H12.5002C12.7752 10 13.0168 9.86667 13.1668 9.66667L15.6668 6.33333C15.7752 6.19167 15.8335 6.01667 15.8335 5.83333C15.8335 5.61232 15.7457 5.40036 15.5894 5.24408C15.4331 5.0878 15.2212 5 15.0002 5ZM12.5002 10.8333H5.72516L5.0835 12.1333L5.00016 12.5C5.00016 12.721 5.08796 12.933 5.24424 13.0893C5.40052 13.2455 5.61248 13.3333 5.8335 13.3333H15.0002V14.1667H5.8335C5.39147 14.1667 4.96755 13.9911 4.65498 13.6785C4.34242 13.366 4.16683 12.942 4.16683 12.5C4.16658 12.2172 4.23827 11.9391 4.37516 11.6917L4.97516 10.4667L1.95016 3.33333H0.833496V2.5H2.50016L3.2085 4.16667H15.0002C15.4422 4.16667 15.8661 4.34226 16.1787 4.65482C16.4912 4.96738 16.6668 5.39131 16.6668 5.83333C16.6668 6.25 16.5252 6.6 16.2918 6.88333L13.8668 10.125C13.5668 10.55 13.0668 10.8333 12.5002 10.8333Z" fill="black" stroke="black"/>
</svg>
