<svg width="30" height="30" viewBox="0 0 30 30" fill="none" xmlns="http://www.w3.org/2000/svg">
<path d="M5.29951 15.3125C4.80527 14.8216 4.41369 14.2371 4.14757 13.5933C3.88146 12.9495 3.74615 12.2592 3.74951 11.5625C3.74951 10.1536 4.30922 8.8023 5.30551 7.80602C6.30179 6.80973 7.65305 6.25002 9.06201 6.25002C11.037 6.25002 12.762 7.32502 13.6745 8.92502H15.0745C15.5384 8.11134 16.2096 7.43513 17.0199 6.96524C17.8301 6.49535 18.7504 6.24857 19.687 6.25002C21.096 6.25002 22.4472 6.80973 23.4435 7.80602C24.4398 8.8023 24.9995 10.1536 24.9995 11.5625C24.9995 13.025 24.3745 14.375 23.4495 15.3125L14.3745 24.375L5.29951 15.3125ZM24.3245 16.2C25.512 15 26.2495 13.375 26.2495 11.5625C26.2495 9.82204 25.5581 8.15284 24.3274 6.92213C23.0967 5.69143 21.4275 5.00002 19.687 5.00002C17.4995 5.00002 15.562 6.06252 14.3745 7.71252C13.7684 6.87065 12.9703 6.18542 12.0464 5.71368C11.1225 5.24195 10.0994 4.99729 9.06201 5.00002C7.32153 5.00002 5.65233 5.69143 4.42162 6.92213C3.19092 8.15284 2.49951 9.82204 2.49951 11.5625C2.49951 13.375 3.23701 15 4.42451 16.2L14.3745 26.15L24.3245 16.2Z" fill="black"/>
</svg>
