<svg width="99" height="20" viewBox="0 0 99 20" fill="none" xmlns="http://www.w3.org/2000/svg">
<path d="M0.0560001 10.132C0.0560001 8.636 0.284 7.32 0.74 6.184C1.196 5.04 1.828 4.084 2.636 3.316C3.444 2.54 4.376 1.956 5.432 1.564C6.496 1.172 7.632 0.975999 8.84 0.975999C9.696 0.975999 10.412 1.024 10.988 1.12C11.572 1.208 12.06 1.308 12.452 1.42C12.852 1.524 13.208 1.608 13.52 1.672L13.016 4.936C12.864 4.84 12.632 4.716 12.32 4.564C12.016 4.404 11.6 4.264 11.072 4.144C10.552 4.016 9.9 3.952 9.116 3.952C8.1 3.952 7.2 4.188 6.416 4.66C5.632 5.132 5.016 5.812 4.568 6.7C4.12 7.588 3.896 8.66 3.896 9.916C3.896 11.172 4.1 12.276 4.508 13.228C4.924 14.18 5.532 14.928 6.332 15.472C7.132 16.008 8.108 16.276 9.26 16.276C9.796 16.276 10.34 16.216 10.892 16.096C11.444 15.976 11.936 15.832 12.368 15.664C12.8 15.488 13.12 15.316 13.328 15.148V18.256C13.008 18.384 12.64 18.52 12.224 18.664C11.808 18.808 11.328 18.932 10.784 19.036C10.248 19.14 9.624 19.192 8.912 19.192C7.056 19.192 5.468 18.82 4.148 18.076C2.828 17.324 1.816 16.268 1.112 14.908C0.408 13.548 0.0560001 11.956 0.0560001 10.132ZM23.6139 19.192C21.9019 19.224 20.4299 18.86 19.1979 18.1C17.9659 17.332 17.0299 16.252 16.3899 14.86C15.7499 13.46 15.4459 11.832 15.4779 9.976C15.5179 7.92 15.9099 6.236 16.6539 4.924C17.3979 3.604 18.4019 2.624 19.6659 1.984C20.9299 1.344 22.3619 1.008 23.9619 0.975999C25.6019 0.943999 27.0179 1.3 28.2099 2.044C29.4099 2.78 30.3259 3.836 30.9579 5.212C31.5979 6.58 31.8979 8.196 31.8579 10.06C31.8179 12.116 31.4419 13.816 30.7299 15.16C30.0179 16.496 29.0499 17.496 27.8259 18.16C26.6019 18.816 25.1979 19.16 23.6139 19.192ZM23.6859 16.432C25.0219 16.432 26.0819 15.908 26.8659 14.86C27.6499 13.812 28.0419 12.172 28.0419 9.94C28.0419 8.772 27.8859 7.724 27.5739 6.796C27.2699 5.868 26.8099 5.136 26.1939 4.6C25.5779 4.056 24.8059 3.784 23.8779 3.784C23.0459 3.784 22.2819 3.992 21.5859 4.408C20.8979 4.824 20.3459 5.496 19.9299 6.424C19.5139 7.352 19.3059 8.584 19.3059 10.12C19.3059 11.296 19.4699 12.36 19.7979 13.312C20.1259 14.264 20.6139 15.024 21.2619 15.592C21.9099 16.152 22.7179 16.432 23.6859 16.432ZM33.9941 19L35.9621 1.168H41.0981L43.6781 10.696L44.5421 14.716L45.2621 10.696L47.6501 1.168H52.5941L54.7781 19H51.1181L50.2421 9.004L49.9541 3.952L48.7901 9.088L45.9101 19.132H42.9341L39.8621 9.088L38.6381 3.952L38.3021 9.004L37.5101 19H33.9941ZM58.1274 19V1.168H61.9194V19H58.1274ZM66.2071 19V1.168H69.6871L76.3711 11.716L78.6991 16.36H77.8711L77.3311 10.372V1.168H80.7631V19H77.0431L70.6591 8.776L67.9831 3.496H68.9911L69.6151 9.988V19H66.2071ZM83.8336 10.168C83.8336 8.568 84.0616 7.188 84.5176 6.028C84.9736 4.868 85.6056 3.916 86.4136 3.172C87.2216 2.42 88.1616 1.868 89.2336 1.516C90.3056 1.156 91.4576 0.975999 92.6896 0.975999C93.5776 0.975999 94.3056 1.016 94.8736 1.096C95.4416 1.176 95.9456 1.272 96.3856 1.384C96.8256 1.488 97.2896 1.584 97.7776 1.672L97.6576 4.888C97.1456 4.624 96.5096 4.396 95.7496 4.204C94.9896 4.012 93.9896 3.916 92.7496 3.916C91.7096 3.916 90.8096 4.152 90.0496 4.624C89.2976 5.096 88.7136 5.776 88.2976 6.664C87.8816 7.544 87.6736 8.608 87.6736 9.856C87.6736 11.088 87.8456 12.196 88.1896 13.18C88.5336 14.164 89.0496 14.944 89.7376 15.52C90.4256 16.088 91.2816 16.372 92.3056 16.372C92.9456 16.372 93.5216 16.332 94.0336 16.252C94.5456 16.164 94.9576 16.044 95.2696 15.892V11.788L95.8096 12.304L92.4616 12.112V9.4H98.7496V17.956C98.4456 17.964 98.1176 18.032 97.7656 18.16C97.4216 18.288 97.0176 18.432 96.5536 18.592C96.0896 18.752 95.5216 18.892 94.8496 19.012C94.1776 19.132 93.3536 19.192 92.3776 19.192C90.6096 19.192 89.0856 18.824 87.8056 18.088C86.5336 17.344 85.5536 16.296 84.8656 14.944C84.1776 13.584 83.8336 11.992 83.8336 10.168Z" fill="black"/>
</svg>
