<svg width="160" height="160" viewBox="0 0 160 160" fill="none" xmlns="http://www.w3.org/2000/svg">
<rect width="160" height="160" rx="10" fill="#D9D9D9"/>
<path d="M113.667 103.333C113.667 105.101 112.964 106.797 111.714 108.047C110.464 109.298 108.768 110 107 110H47.0002C45.2321 110 43.5364 109.298 42.2861 108.047C41.0359 106.797 40.3335 105.101 40.3335 103.333V66.6667C40.3335 64.8986 41.0359 63.2029 42.2861 61.9526C43.5364 60.7024 45.2321 60 47.0002 60H60.3335L67.0002 50H87.0002L93.6668 60H107C108.768 60 110.464 60.7024 111.714 61.9526C112.964 63.2029 113.667 64.8986 113.667 66.6667V103.333Z" stroke="white" stroke-width="2" stroke-linecap="round" stroke-linejoin="round"/>
<path d="M77.0002 96.6667C84.364 96.6667 90.3335 90.6971 90.3335 83.3333C90.3335 75.9695 84.364 70 77.0002 70C69.6364 70 63.6668 75.9695 63.6668 83.3333C63.6668 90.6971 69.6364 96.6667 77.0002 96.6667Z" stroke="white" stroke-width="2" stroke-linecap="round" stroke-linejoin="round"/>
</svg>
