<svg width="24" height="24" viewBox="0 0 24 24" fill="none" xmlns="http://www.w3.org/2000/svg">
<path d="M3.25 22V20.75C3.25 18.4294 4.17187 16.2038 5.81282 14.5628C7.45376 12.9219 9.67935 12 12 12M12 12C14.3206 12 16.5462 12.9219 18.1872 14.5628C19.8281 16.2038 20.75 18.4294 20.75 20.75V22M12 12C13.3261 12 14.5979 11.4732 15.5355 10.5355C16.4732 9.59785 17 8.32608 17 7C17 5.67392 16.4732 4.40215 15.5355 3.46447C14.5979 2.52678 13.3261 2 12 2C10.6739 2 9.40215 2.52678 8.46446 3.46447C7.52678 4.40215 7 5.67392 7 7C7 8.32608 7.52678 9.59785 8.46446 10.5355C9.40215 11.4732 10.6739 12 12 12Z" stroke="#171717" stroke-width="1.5" stroke-linecap="round" stroke-linejoin="round"/>
</svg>
